<?xml version="1.0" encoding="UTF-8" standalone="no"?>
<!-- Created with Inkscape (http://www.inkscape.org/) -->

<svg
   xmlns:dc="http://purl.org/dc/elements/1.1/"
   xmlns:cc="http://creativecommons.org/ns#"
   xmlns:rdf="http://www.w3.org/1999/02/22-rdf-syntax-ns#"
   xmlns:svg="http://www.w3.org/2000/svg"
   xmlns="http://www.w3.org/2000/svg"
   xmlns:xlink="http://www.w3.org/1999/xlink"
   xmlns:sodipodi="http://sodipodi.sourceforge.net/DTD/sodipodi-0.dtd"
   xmlns:inkscape="http://www.inkscape.org/namespaces/inkscape"
   width="744.09448819"
   height="1052.3622047"
   id="svg2"
   version="1.1"
   inkscape:version="0.48.2 r9819"
   sodipodi:docname="icon.svg">
  <defs
     id="defs4">
    <linearGradient
       id="linearGradient3763">
      <stop
         style="stop-color:#4e4e4e;stop-opacity:1;"
         offset="0"
         id="stop3765" />
      <stop
         style="stop-color:#e1e1e1;stop-opacity:1;"
         offset="1"
         id="stop3767" />
    </linearGradient>
    <radialGradient
       inkscape:collect="always"
       xlink:href="#linearGradient3763"
       id="radialGradient3769"
       cx="281.31982"
       cy="283.12337"
       fx="281.31982"
       fy="283.12337"
       r="154.65"
       gradientUnits="userSpaceOnUse" />
  </defs>
  <sodipodi:namedview
     id="base"
     pagecolor="#ffffff"
     bordercolor="#666666"
     borderopacity="1.0"
     inkscape:pageopacity="0.0"
     inkscape:pageshadow="2"
     inkscape:zoom="0.98994949"
     inkscape:cx="-89.790391"
     inkscape:cy="685.18538"
     inkscape:document-units="px"
     inkscape:current-layer="layer1"
     showgrid="false"
     inkscape:window-width="1440"
     inkscape:window-height="843"
     inkscape:window-x="0"
     inkscape:window-y="26"
     inkscape:window-maximized="1" />
  <metadata
     id="metadata7">
    <rdf:RDF>
      <cc:Work
         rdf:about="">
        <dc:format>image/svg+xml</dc:format>
        <dc:type
           rdf:resource="http://purl.org/dc/dcmitype/StillImage" />
        <dc:title />
      </cc:Work>
    </rdf:RDF>
  </metadata>
  <g
     inkscape:label="Layer 1"
     inkscape:groupmode="layer"
     id="layer1">
    <rect
       style="fill:url(#radialGradient3769);fill-rule:evenodd;stroke:#000000;stroke-width:9.30000000000000071;stroke-linecap:butt;stroke-linejoin:miter;stroke-opacity:1;stroke-miterlimit:4;stroke-dasharray:none;fill-opacity:1"
       id="rect2993"
       width="300"
       height="300"
       x="131.31982"
       y="133.12337"
       rx="52.528"
       ry="47.988174" />
    <text
       xml:space="preserve"
       style="font-size:264.5791626px;font-style:normal;font-weight:normal;line-height:125%;letter-spacing:0px;word-spacing:0px;fill:#000000;fill-opacity:1;stroke:none;font-family:Sans"
       x="154.68962"
       y="357.09259"
       id="text3790"
       sodipodi:linespacing="125%"
       transform="scale(0.96378865,1.0375719)"><tspan
         sodipodi:role="line"
         id="tspan3792"
         x="154.68962"
         y="357.09259"
         style="font-size:264.5791626px;font-style:normal;font-variant:normal;font-weight:normal;font-stretch:normal;text-align:start;line-height:125%;writing-mode:lr-tb;text-anchor:start;font-family:Droid Serif;-inkscape-font-specification:Droid Serif">W</tspan></text>
    <flowRoot
       xml:space="preserve"
       id="flowRoot3794"
       style="fill:black;stroke:none;stroke-opacity:1;stroke-width:1px;stroke-linejoin:miter;stroke-linecap:butt;fill-opacity:1;font-family:Sans;font-style:normal;font-weight:normal;font-size:40px;line-height:125%;letter-spacing:0px;word-spacing:0px"><flowRegion
         id="flowRegion3796"><rect
           id="rect3798"
           width="88.893425"
           height="105.05586"
           x="162.63457"
           y="261.41275" /></flowRegion><flowPara
         id="flowPara3800" /></flowRoot>    <path
       style="fill:#4d4d4d;stroke-width:9.30000019;stroke-miterlimit:4;stroke-dasharray:none"
       id="path3856"
       d="m 176.50033,404.12627 c 8.35883,-6.42395 17.69362,-11.54885 27.53697,-15.29085 10.38377,-3.46151 21.19553,-5.27054 31.97025,-7.00868 12.83151,-1.94931 25.74351,-3.25984 38.68444,-4.19998 12.99957,-0.85078 26.0328,-0.88552 39.05414,-1.02295 9.46068,-0.0596 18.92125,-0.13005 28.38181,-0.2068 4.69198,-0.0336 9.38074,-0.22186 14.06313,-0.53237 0,0 -11.70611,8.61108 -11.70611,8.61108 l 0,0 c -4.63341,0.24045 -9.27548,0.37132 -13.91513,0.31618 -9.2759,-0.10454 -18.55209,-0.20627 -27.82878,-0.18162 -12.97945,0.0291 -25.96586,0.18193 -38.92162,1.03869 -12.94362,0.96707 -25.85726,2.33583 -38.68309,4.35177 -10.88494,1.84485 -21.82615,3.74886 -32.22709,7.57717 -1.24707,0.51031 -2.50754,0.98904 -3.74122,1.53094 -4.42325,1.94295 -11.05203,5.81074 6.16866,-4.09186 1.3519,-0.7774 -2.58683,1.74481 -3.83459,2.68026 -0.376,0.2819 -0.74593,0.57181 -1.11889,0.85771 0,0 -13.88288,5.57131 -13.88288,5.57131 z"
       inkscape:connector-curvature="0" />
    <path
       style="fill:#4d4d4d;stroke-width:9.30000019;stroke-miterlimit:4;stroke-dasharray:none"
       id="path3858"
       d="m 200.71102,413.18976 c 7.42777,-2.20285 15.07518,-3.48895 22.68781,-4.87024 11.46077,-2.1824 23.05247,-3.2711 34.68342,-3.97515 9.72248,-0.567 19.46317,-0.87531 29.18016,-1.52507 8.18784,-0.92737 16.40241,-1.54165 24.6197,-2.13349 6.30227,-0.48894 12.61805,-0.64757 18.9361,-0.72158 0,0 -11.15069,8.14096 -11.15069,8.14096 l 0,0 c -6.36365,0.21832 -12.72978,0.42967 -19.07995,0.9183 -8.22964,0.6587 -16.45361,1.37287 -24.67326,2.14449 -9.62568,0.50462 -19.26121,0.83518 -28.88857,1.31055 -11.61923,0.68341 -23.18478,1.91511 -34.62035,4.14411 -7.92621,1.53617 -15.88299,3.00557 -23.52619,5.67704 0,0 11.83182,-9.10992 11.83182,-9.10992 z"
       inkscape:connector-curvature="0" />
  </g>
</svg>
